<svg width="1024" height="1024" viewBox="0 0 512 512" xmlns="http://www.w3.org/2000/svg">
<rect width="512" height="512" rx="112" fill="#f5f5f5"/>
<clipPath id="clip">
<rect width="512" height="512" rx="112"/>
</clipPath>
<g clip-path="url(#clip)">
<g transform="translate(256, 256) scale(1.95) translate(-182, -112)">
<ellipse cx="182" cy="112" rx="180" ry="110" fill="#f5f5f5"/>
<path d="m122 82c-20-10 40-30 120 0 30 20 20 60-10 70-70 20-130 0-140-30-10-20 10-30 30-40" fill="#8b4513" stroke="#654321" stroke-width="3"/>
<g stroke="#472400" stroke-width="3">
<path d="m142 92 60 10" fill="none"/>
<path d="m162 112 60 10" fill="none"/>
<path d="m152 132 60 10" fill="none"/>
</g>
<circle cx="142" cy="62" r="35" fill="#fff" stroke="#e6e6e6" stroke-width="2"/>
<circle cx="142" cy="62" r="12" fill="#ffd700"/>
<circle cx="232" cy="52" r="30" fill="#fff" stroke="#e6e6e6" stroke-width="2"/>
<circle cx="232" cy="52" r="10" fill="#ffd700"/>
</g>
</g>
</svg>